SplineFontDB: 3.0
FontName: Oxygen-Sans-Book
FullName: Oxygen-Sans Book
FamilyName: Oxygen-Sans
Weight: Normal
Copyright: 2013 (c) Vernon Adams
Version: 0.045;PS (version unavailable);hotconv 1.0.70;makeotf.lib2.5.5900
ItalicAngle: 0
UnderlinePosition: 0
UnderlineWidth: 0
Ascent: 1638
Descent: 410
sfntRevision: 0x00000b85
LayerCount: 2
Layer: 0 0 "Back"  1
Layer: 1 0 "Fore"  0
XUID: [1021 848 1411038578 2420375]
FSType: 4
OS2Version: 3
OS2_WeightWidthSlopeOnly: 0
OS2_UseTypoMetrics: 1
CreationTime: 1379416872
ModificationTime: 1379444041
PfmFamily: 81
TTFWeight: 400
TTFWidth: 5
LineGap: 0
VLineGap: 0
OS2TypoAscent: 1735
OS2TypoAOffset: 0
OS2TypoDescent: -494
OS2TypoDOffset: 0
OS2TypoLinegap: 0
OS2WinAscent: 1735
OS2WinAOffset: 0
OS2WinDescent: 494
OS2WinDOffset: 0
HheadAscent: 1735
HheadAOffset: 0
HheadDescent: -494
HheadDOffset: 0
OS2Vendor: 'newt'
MarkAttachClasses: 1
DEI: 91125
LangName: 1033 "2013 +AKkA Vernon Adams" "Oxygen-Sans Book" "Regular" "0.045;newt;Oxygen-Sans-Book" "" "Version 0.045;PS (version unavailable);hotconv 1.0.70;makeotf.lib2.5.5900" "" "" "Vernon Adams" "Vernon Adams" "" "http://code.newtypography.co.uk" "http://code.newtypography.co.uk" "" "" "" "Oxygen-Sans" "Book" 
Encoding: UnicodeBmp
Compacted: 1
UnicodeInterp: none
NameList: AGL For New Fonts
DisplaySize: -72
AntiAlias: 1
FitToEm: 1
WinInfo: 64 16 4
BeginPrivate: 0
EndPrivate
BeginChars: 65550 127

StartChar: onehalf
Encoding: 189 189 0
Width: 1645
Flags: HMW
HStem: -9 111<1200 1544> 598 109<83 237 83 237 375 514> 724 117<1234 1314>
VStem: 237 138<707 1320 1320 1320> 1023 524 1426 132<548.5 631>
LayerCount: 2
Fore
SplineSet
1023 -9 m 1xf8
 1023 98 l 1xf8
 1271 340 l 2
 1386 453 1426 514 1426 583 c 0
 1426 679 1355 724 1273 724 c 0
 1195 724 1112 690 1054 612 c 1
 982 690 l 1
 1035 783 1160 841 1275 841 c 0
 1427 841 1558 754 1558 591 c 0xf4
 1558 453 1495 383 1371 265 c 2
 1200 102 l 1
 1550 102 l 1
 1544 -9 l 1
 1023 -9 l 1xf8
83 598 m 1
 83 707 l 1
 237 707 l 1
 237 1320 l 1
 200 1297 107 1260 73 1248 c 1
 73 1359 l 1
 109 1372 223 1421 265 1460 c 1
 375 1460 l 1
 375 707 l 1
 514 707 l 1
 514 598 l 1
 83 598 l 1
303 6 m 1
 1211 1479 l 1
 1344 1479 l 1
 436 6 l 1
 303 6 l 1
EndSplineSet
EndChar

StartChar: onequarter
Encoding: 188 188 1
Width: 1585
Flags: HMW
HStem: 186 104<1076 1314 1076 1315 1443 1556> 598 109<83 237 83 237 375 514>
VStem: 237 138<707 1320 1320 1320> 1314 129<290 673 673 673>
LayerCount: 2
Fore
SplineSet
1076 290 m 1
 1314 290 l 1
 1314 673 l 1
 1076 290 l 1
1315 0 m 1
 1315 186 l 1
 937 186 l 1
 937 277 l 1
 1305 836 l 1
 1443 836 l 1
 1443 290 l 1
 1556 290 l 1
 1564 186 l 1
 1442 186 l 1
 1442 0 l 1
 1315 0 l 1
83 598 m 1
 83 707 l 1
 237 707 l 1
 237 1320 l 1
 200 1297 107 1260 73 1248 c 1
 73 1359 l 1
 109 1372 223 1421 265 1460 c 1
 375 1460 l 1
 375 707 l 1
 514 707 l 1
 514 598 l 1
 83 598 l 1
328 0 m 1
 1236 1480 l 1
 1367 1480 l 1
 460 0 l 1
 328 0 l 1
EndSplineSet
EndChar

StartChar: threequarters
Encoding: 190 190 2
Width: 1615
Flags: HMW
HStem: 186 104<1076 1314 1076 1315 1443 1556> 615 113<309 377.5 307 422.5> 1009 113<213 284 284 287 213 284> 1362 113<306.5 375>
VStem: 461 131<1215 1284> 480 131<822.5 915.5 788.5 917> 1314 129<290 673 673 673>
LayerCount: 2
Fore
SplineSet
1076 290 m 1xf2
 1314 290 l 1
 1314 673 l 1
 1076 290 l 1xf2
350 615 m 0
 268 615 149 640 89 702 c 1
 138 798 l 1
 187 754 276 728 338 728 c 0
 417 728 480 774 480 871 c 0xf6
 480 963 397 1009 287 1009 c 2
 213 1009 l 1
 213 1122 l 1
 284 1122 l 2
 384 1122 461 1163 461 1244 c 0
 461 1324 410 1362 340 1362 c 0
 273 1362 181 1333 141 1293 c 1
 87 1380 l 1
 143 1440 258 1475 345 1475 c 0
 470 1475 592 1399 592 1246 c 0xfa
 592 1184 554 1099 448 1073 c 1
 553 1042 611 964 611 867 c 0xf6
 611 710 495 615 350 615 c 0
1315 0 m 1
 1315 186 l 1
 937 186 l 1
 937 277 l 1
 1305 836 l 1
 1443 836 l 1
 1443 290 l 1
 1556 290 l 1
 1564 186 l 1
 1442 186 l 1
 1442 0 l 1
 1315 0 l 1
349 0 m 1
 1257 1480 l 1
 1388 1480 l 1
 481 0 l 1
 349 0 l 1
EndSplineSet
EndChar

StartChar: brokenbar
Encoding: 166 166 3
Width: 334
Flags: HMW
HStem: -208 743<110 234 110 234> 800 740<110 234 110 234>
VStem: 110 124<-208 535 800 1540>
LayerCount: 2
Fore
SplineSet
234 -208 m 1
 110 -208 l 1
 110 535 l 1
 234 535 l 1
 234 -208 l 1
234 800 m 1
 110 800 l 1
 110 1540 l 1
 234 1540 l 1
 234 800 l 1
EndSplineSet
EndChar

StartChar: exclam
Encoding: 33 33 5
Width: 564
Flags: HMW
HStem: -13 229<242 322> 418 1042<248 248 248 314>
VStem: 167 230<74 130> 190 176<1341 1460 1341 1460>
LayerCount: 2
Fore
SplineSet
282 -13 m 0xe0
 202 -13 167 46 167 102 c 0
 167 158 202 216 282 216 c 0
 362 216 397 158 397 102 c 0
 397 44 362 -13 282 -13 c 0xe0
248 418 m 1
 190 1341 l 1
 190 1460 l 1
 366 1460 l 1
 366 1341 l 1xd0
 314 418 l 1
 248 418 l 1
EndSplineSet
EndChar

StartChar: quotedbl
Encoding: 34 34 6
Width: 641
Flags: HMW
HStem: 843 617<154 154 154 229 423 423 423 499>
VStem: 94 474<1460 1460>
LayerCount: 2
Fore
SplineSet
154 843 m 1
 94 1460 l 1
 292 1460 l 1
 229 843 l 1
 154 843 l 1
423 843 m 1
 380 1460 l 1
 568 1460 l 1
 499 843 l 1
 423 843 l 1
EndSplineSet
EndChar

StartChar: numbersign
Encoding: 35 35 7
Width: 1204
Flags: HMW
HStem: 431 91<98 267 85 285 410 674 820 1008> 967 91<194 378 181 397 523 787 931 1104>
VStem: 85 1034<431 1058>
LayerCount: 2
Fore
SplineSet
582 -20 m 1
 674 431 l 1
 392 431 l 1
 298 -20 l 1
 174 -20 l 1
 267 431 l 1
 85 431 l 1
 98 522 l 1
 285 522 l 1
 378 967 l 1
 181 967 l 1
 194 1058 l 1
 397 1058 l 1
 479 1460 l 1
 605 1460 l 1
 523 1058 l 1
 806 1058 l 1
 889 1460 l 1
 1013 1460 l 1
 931 1058 l 1
 1119 1058 l 1
 1104 967 l 1
 913 967 l 1
 820 522 l 1
 1023 522 l 1
 1008 431 l 1
 800 431 l 1
 707 -20 l 1
 582 -20 l 1
694 522 m 1
 787 967 l 1
 504 967 l 1
 410 522 l 1
 694 522 l 1
EndSplineSet
EndChar

StartChar: dollar
Encoding: 36 36 8
Width: 1167
Flags: HMW
HStem: -19 139<549 549> 1340 395<572 673.5>
VStem: 137 167 909 165<289.5 471>
LayerCount: 2
Fore
SplineSet
612 1340 m 0
 429.3399599 1340 302.984628012 1299.79048804 302.984628012 1091.38213801 c 0
 302.984628012 971.179203486 366.943484618 937.47680909 490 889 c 0
 875 735 1074 719 1074 384 c 0
 1074 111 891 7 684 -15 c 1
 654 -278 l 1
 518 -278 l 1
 549 -19 l 1
 383 -11 236 38 146 100 c 1
 193 233 l 1
 328 150 469 120 595 120 c 0
 780 120 909 186 909 393 c 0
 909 549 842 582 671 651 c 0
 329.280101645 789.586403222 135.327859038 809.237864013 135.327859038 1085.41796815 c 0
 135.327859038 1365.23839492 311.744765702 1464.01712537 543 1478 c 1
 572 1735 l 1
 702 1735 l 1
 673 1477 l 1
 798 1468 925 1432 1022 1372 c 1
 969 1245 l 1
 873 1303 735 1340 612 1340 c 0
EndSplineSet
EndChar

StartChar: percent
Encoding: 37 37 9
Width: 1789
Flags: HMW
HStem: -1 93<1310 1466 1310 1499> 650 94<1310 1465.5> 715 94<324 480 324 513> 1366 93<324 479.5>
VStem: 62 116<1008 1167.5 1008 1193.5> 625 116<1010.5 1170.5> 1048 116<292 451.5 292 477.5> 1611 116<294.5 454.5>
LayerCount: 2
Fore
SplineSet
1164 373 m 0xdf
 1164 211 1232 92 1388 92 c 0
 1544 92 1611 216 1611 373 c 0
 1611 536 1543 650 1388 650 c 0
 1232 650 1164 530 1164 373 c 0xdf
1727 372 m 0
 1727 162 1611 -1 1387 -1 c 0
 1161 -1 1048 162 1048 372 c 0
 1048 583 1165 744 1387 744 c 0
 1614 744 1727 586 1727 372 c 0
178 1089 m 0
 178 927 246 809 402 809 c 0xbf
 558 809 625 932 625 1089 c 0
 625 1252 557 1366 402 1366 c 0
 246 1366 178 1246 178 1089 c 0
741 1088 m 0
 741 878 625 715 401 715 c 0
 175 715 62 878 62 1088 c 0
 62 1299 179 1459 401 1459 c 0
 628 1459 741 1302 741 1088 c 0
549 0 m 1
 417 0 l 1
 1247 1460 l 1
 1369 1460 l 1
 549 0 l 1
EndSplineSet
EndChar

StartChar: ampersand
Encoding: 38 38 10
Width: 1401
Flags: HMW
HStem: -20 132<539 679 539 689.5> 1340 119<600.5 727.5>
VStem: 155 160<297 449 297 469.5> 280 147<1111 1214.5> 857 149<1082.5 1217.5>
LayerCount: 2
Fore
SplineSet
955 233 m 1xe8
 537 697 l 1
 414 622 315 530 315 368 c 0
 315 226 449 112 629 112 c 0
 729 112 842 148 955 233 c 1xe8
581 855 m 1
 728 931 857 1006 857 1159 c 0
 857 1276 792 1340 663 1340 c 0
 538 1340 427 1272 427 1157 c 0xd8
 427 1065 465 981 559 879 c 2
 581 855 l 1
1006 1164 m 0
 1006 951 834 859 662 767 c 1
 1063 332 l 1
 1121 395 1178 473 1231 568 c 1
 1345 493 l 1
 1285 389 1222 303 1155 233 c 1
 1314 60 l 1
 1198 -36 l 1
 1045 134 l 1
 903 25 756 -20 623 -20 c 0
 361 -20 155 155 155 352 c 0xe8
 155 587 297 702 454 789 c 1
 427 819 l 2
 332 924 280 1027 280 1146 c 0
 280 1334 439 1459 661 1459 c 0
 863 1459 1006 1361 1006 1164 c 0
EndSplineSet
EndChar

StartChar: quotesingle
Encoding: 39 39 11
Width: 341
Flags: HMW
HStem: 953 507<132 132 132 223>
VStem: 96 165<1460 1460>
LayerCount: 2
Fore
SplineSet
132 953 m 1
 96 1460 l 1
 261 1460 l 1
 223 953 l 1
 132 953 l 1
EndSplineSet
EndChar

StartChar: parenleft
Encoding: 40 40 12
Width: 702
Flags: HMW
HStem: -229 1775<454 454 454 608>
VStem: 194 162<532.5 842 532.5 848>
LayerCount: 2
Fore
SplineSet
454 -229 m 1
 290 -1 194 335 194 687 c 0
 194 1009 288 1307 452 1546 c 1
 609 1546 l 1
 431 1273 356 993 356 691 c 0
 356 374 424 60 608 -229 c 1
 454 -229 l 1
EndSplineSet
EndChar

StartChar: parenright
Encoding: 41 41 13
Width: 706
Flags: HMW
HStem: -229 1775<114 114 114 269>
VStem: 366 162<533 843>
LayerCount: 2
Fore
SplineSet
114 -229 m 1
 287 34 366 371 366 695 c 0
 366 991 301 1247 113 1546 c 1
 270 1546 l 1
 438 1299 528 1014 528 693 c 0
 528 340 429 -9 269 -229 c 1
 114 -229 l 1
EndSplineSet
EndChar

StartChar: asterisk
Encoding: 42 42 14
Width: 1203
Flags: HMW
HStem: 553 907<408 685 518 797>
VStem: 157 889<1050 1050>
LayerCount: 2
Fore
SplineSet
596 911 m 1
 408 553 l 1
 272 639 l 1
 514 968 l 1
 157 1050 l 1
 201 1205 l 1
 553 1056 l 1
 518 1460 l 1
 685 1460 l 1
 648 1056 l 1
 1002 1205 l 1
 1046 1050 l 1
 684 968 l 1
 724 914 835 764 933 639 c 1
 873 601 857 591 797 553 c 1
 596 911 l 1
EndSplineSet
EndChar

StartChar: plus
Encoding: 43 43 15
Width: 1203
Flags: HMW
HStem: 621 123<160 538 160 539 670 1043>
VStem: 538 132<227 621 227 621>
LayerCount: 2
Fore
SplineSet
538 227 m 1
 538 621 l 1
 160 621 l 1
 160 744 l 1
 539 744 l 1
 539 1133 l 1
 670 1133 l 1
 670 744 l 1
 1043 744 l 1
 1043 621 l 1
 670 621 l 1
 670 227 l 1
 538 227 l 1
EndSplineSet
EndChar

StartChar: comma
Encoding: 44 44 16
Width: 485
Flags: HMW
HStem: -300 522<137 351 178 234>
VStem: 137 214
LayerCount: 2
Fore
SplineSet
137 -300 m 1
 178 222 l 1
 351 222 l 1
 351 141 l 1
 234 -300 l 1
 137 -300 l 1
EndSplineSet
EndChar

StartChar: hyphen
Encoding: 45 45 17
Width: 1205
Flags: HMW
HStem: 579 135<268 937 268 937>
VStem: 268 669<579 714 579 714>
LayerCount: 2
Fore
SplineSet
268 579 m 1
 268 714 l 1
 937 714 l 1
 937 579 l 1
 268 579 l 1
EndSplineSet
EndChar

StartChar: period
Encoding: 46 46 18
Width: 493
Flags: HMW
HStem: -11 228<223 301>
VStem: 147 227<74.5 131>
LayerCount: 2
Fore
SplineSet
262 -11 m 0
 184 -11 147 46 147 103 c 0
 147 159 183 217 262 217 c 0
 340 217 374 159 374 103 c 0
 374 46 340 -11 262 -11 c 0
EndSplineSet
EndChar

StartChar: slash
Encoding: 47 47 19
Width: 963
Flags: HMW
HStem: 0 1460<103 860 103 860>
VStem: 103 757
LayerCount: 2
Fore
SplineSet
103 0 m 1
 712 1460 l 1
 860 1460 l 1
 247 0 l 1
 103 0 l 1
EndSplineSet
EndChar

StartChar: zero
Encoding: 48 48 20
Width: 1204
Flags: HMW
HStem: -29 135<506 708 506 778.5> 1345 135<506 708>
VStem: 114 165<523 731 523 953.5> 925 165<524 943.5>
LayerCount: 2
Fore
SplineSet
607 106 m 0
 809 106 925 316 925 732 c 0
 925 1155 809 1345 607 1345 c 0
 405 1345 278 1127 279 731 c 1
 279 315 405 106 607 106 c 0
607 -29 m 0
 264 -29 114 293 114 726 c 0
 114 1181 280 1480 607 1480 c 0
 934 1480 1090 1182 1090 726 c 0
 1090 293 950 -29 607 -29 c 0
EndSplineSet
EndChar

StartChar: one
Encoding: 49 49 21
Width: 1204
Flags: HMW
HStem: 0 120<237 589 237 589 755 1069>
VStem: 589 166<120 1308 1308 1308>
LayerCount: 2
Fore
SplineSet
237 0 m 1
 237 120 l 1
 589 120 l 1
 589 1308 l 1
 500 1258 351 1215 268 1204 c 1
 268 1336 l 1
 351 1353 526 1407 602 1460 c 1
 755 1460 l 1
 755 120 l 1
 1069 120 l 1
 1069 0 l 1
 237 0 l 1
EndSplineSet
EndChar

StartChar: two
Encoding: 50 50 22
Width: 1204
Flags: HMW
HStem: 0 120<379 999> 1340 140<519 634.5>
VStem: 851 162<989 1181.5>
LayerCount: 2
Fore
SplineSet
218 0 m 1
 192 131 l 1
 663 687 l 2
 775 819 851 907 851 1071 c 0
 851 1292 692 1340 577 1340 c 0
 461 1340 336 1297 247 1239 c 1
 198 1366 l 1
 285 1430 442 1480 595 1480 c 0
 779 1480 1013 1390 1013 1087 c 0
 1013 883 941 778 771 579 c 2
 379 120 l 1
 1008 120 l 1
 999 0 l 1
 218 0 l 1
EndSplineSet
EndChar

StartChar: three
Encoding: 51 51 23
Width: 1204
Flags: HMW
HStem: -21 142<527 662 527 704.5> 703 134<416 458 416 459> 1341 138<500 623.5>
VStem: 813 172<1095 1102 1102 1102> 850 174<401 408 401 528.5>
LayerCount: 2
Fore
SplineSet
583 -21 m 0xe8
 465 -21 337 11 213 76 c 1
 213 226 l 1
 352 155 476 121 578 121 c 0
 746 121 850 217 850 401 c 0xe8
 850 656 682 703 458 703 c 2
 416 703 l 1
 416 837 l 1
 459 837 l 2
 627 837 813 880 813 1095 c 2
 813 1102 l 1
 810 1272 696 1341 551 1341 c 0
 449 1341 332 1306 231 1248 c 1
 177 1370 l 1
 295 1442 431 1479 556 1479 c 0
 785 1479 982 1359 985 1113 c 1
 985 1107 l 2xf0
 985 918 882 816 719 774 c 1
 895 737 1024 614 1024 408 c 2
 1024 401 l 1
 1020 119 826 -21 583 -21 c 0xe8
EndSplineSet
EndChar

StartChar: four
Encoding: 52 52 24
Width: 1204
Flags: HMW
HStem: 368 132<280 779 280 779 937 1104>
VStem: 779 158<0 368 0 368 500 1254 1254 1254>
LayerCount: 2
Fore
SplineSet
280 500 m 1
 779 500 l 1
 779 1254 l 1
 280 500 l 1
779 0 m 1
 779 368 l 1
 135 368 l 1
 115 512 l 1
 768 1460 l 1
 937 1460 l 1
 937 500 l 1
 1116 500 l 1
 1104 368 l 1
 937 368 l 1
 937 0 l 1
 779 0 l 1
EndSplineSet
EndChar

StartChar: five
Encoding: 53 53 25
Width: 1204
Flags: HMW
HStem: -21 141<527 677.5 527 727.5> 778 131<585 719> 1328 132<389 1003 389 389>
VStem: 234 147 909 169<350.5 546.5>
LayerCount: 2
Fore
SplineSet
591 -21 m 0
 456 -21 307 19 162 100 c 1
 219 229 l 1
 350 155 474 120 580 120 c 0
 775 120 909 240 909 461 c 0
 909 632 824 778 614 778 c 0
 516 778 416 737 354 671 c 1
 220 687 l 1
 248 1460 l 1
 1016 1460 l 1
 1003 1328 l 1
 389 1328 l 1
 373 830 l 1
 447 880 530 909 640 909 c 0
 922 909 1078 706 1078 464 c 0
 1078 143 864 -21 591 -21 c 0
EndSplineSet
EndChar

StartChar: six
Encoding: 54 54 26
Width: 1204
Flags: HMW
HStem: -20 131<519.5 722.5 519.5 768.5> 740 129<614.5 725>
VStem: 157 159<343 543.5> 933 161<348 521>
LayerCount: 2
Fore
SplineSet
621 111 m 0
 824 111 933 263 933 433 c 0
 933 609 823 740 627 740 c 0
 497 740 316 664 316 427 c 0
 316 259 418 111 621 111 c 0
625 -20 m 0
 323 -20 157 199 157 437 c 0
 157 650 245 787 376 976 c 1
 705 1460 l 1
 894 1460 l 1
 554 960 l 2
 524 916 486 863 449 813 c 1
 504 845 573 869 656 869 c 0
 888 869 1094 693 1094 434 c 0
 1094 183 912 -20 625 -20 c 0
EndSplineSet
EndChar

StartChar: seven
Encoding: 55 55 27
Width: 1204
Flags: HMW
HStem: 1326 134<209 864 209 209>
VStem: 190 848<1342 1460>
LayerCount: 2
Fore
SplineSet
360 0 m 1
 864 1326 l 1
 209 1326 l 1
 190 1460 l 1
 1038 1460 l 1
 1038 1342 l 1
 526 0 l 1
 360 0 l 1
EndSplineSet
EndChar

StartChar: eight
Encoding: 56 56 28
Width: 1204
Flags: HMW
HStem: -20 128<498.5 708.5 498.5 731> 1357 123<518 686.5>
VStem: 130 155<293.5 464> 161 160<1043 1192 1043 1230.5> 881 160<1043 1192> 916 157<291 457 237.5 464>
LayerCount: 2
Fore
SplineSet
602 108 m 0xe4
 815 108 916 202 916 380 c 0
 916 548 783 661 602 700 c 1
 422 661 285 554 285 379 c 0
 285 208 395 108 602 108 c 0xe4
602 817 m 1
 789 858 881 965 881 1121 c 0
 881 1263 771 1357 602 1357 c 0
 434 1357 321 1263 321 1121 c 0xd8
 321 965 417 858 602 817 c 1
602 -20 m 0
 346 -20 130 111 130 364 c 0xe4
 130 564 244 697 436 763 c 1
 281 814 161 940 161 1117 c 0
 161 1344 347 1480 603 1480 c 0
 859 1480 1041 1344 1041 1117 c 0xd8
 1041 940 931 823 771 765 c 1
 954 706 1073 550 1073 364 c 0xc4
 1073 111 860 -20 602 -20 c 0
EndSplineSet
EndChar

StartChar: nine
Encoding: 57 57 29
Width: 1204
Flags: HMW
HStem: 590 129<519 626.5> 1349 131<523.5 726.5>
VStem: 150 162<938.5 1112 938.5 1151> 930 158<916 1117>
LayerCount: 2
Fore
SplineSet
617 719 m 0
 747 719 930 795 930 1033 c 0
 930 1201 828 1349 625 1349 c 0
 422 1349 312 1197 312 1027 c 0
 312 850 421 719 617 719 c 0
303 0 m 1
 682 508 l 2
 711 547 748 594 784 640 c 1
 730 611 665 590 588 590 c 0
 356 590 150 765 150 1025 c 0
 150 1277 333 1480 620 1480 c 0
 922 1480 1088 1260 1088 1022 c 0
 1088 810 989 670 856 488 c 2
 499 0 l 1
 303 0 l 1
EndSplineSet
EndChar

StartChar: colon
Encoding: 58 58 30
Width: 537
Flags: HMW
HStem: -10 239<237 319> 817 239<237 319>
VStem: 157 238<79 138.5 906 965.5>
LayerCount: 2
Fore
SplineSet
278 -10 m 0
 196 -10 157 49 157 109 c 0
 157 168 195 229 278 229 c 0
 360 229 395 168 395 109 c 0
 395 49 360 -10 278 -10 c 0
278 817 m 0
 196 817 157 876 157 936 c 0
 157 995 195 1056 278 1056 c 0
 360 1056 395 995 395 936 c 0
 395 876 360 817 278 817 c 0
EndSplineSet
EndChar

StartChar: semicolon
Encoding: 59 59 31
Width: 524
Flags: HMW
HStem: -300 522<157 371 198 254> 819 239<237 319>
VStem: 157 238<908 967.5>
LayerCount: 2
Fore
SplineSet
157 -300 m 1
 198 222 l 1
 371 222 l 1
 371 141 l 1
 254 -300 l 1
 157 -300 l 1
278 819 m 0
 196 819 157 878 157 938 c 0
 157 997 195 1058 278 1058 c 0
 360 1058 395 997 395 938 c 0
 395 878 360 819 278 819 c 0
EndSplineSet
EndChar

StartChar: less
Encoding: 60 60 32
Width: 1204
Flags: HMW
HStem: 135 1009<1037 1040>
VStem: 110 930<580 1144 667 1144>
LayerCount: 2
Fore
SplineSet
1037 135 m 1
 110 580 l 1
 110 667 l 1
 1040 1144 l 1
 1040 1004 l 1
 295 628 l 1
 1038 276 l 1
 1037 135 l 1
EndSplineSet
EndChar

StartChar: equal
Encoding: 61 61 33
Width: 1205
Flags: HMW
HStem: 429 124<184 1021 184 1021> 783 124<184 1021 184 1021>
VStem: 184 837<429 553 429 553 783 907 429 907>
LayerCount: 2
Fore
SplineSet
184 429 m 1
 184 553 l 1
 1021 553 l 1
 1021 429 l 1
 184 429 l 1
184 783 m 1
 184 907 l 1
 1021 907 l 1
 1021 783 l 1
 184 783 l 1
EndSplineSet
EndChar

StartChar: greater
Encoding: 62 62 34
Width: 1204
Flags: HMW
HStem: 141 1009<161 163>
VStem: 161 930<141 666 282 666>
LayerCount: 2
Fore
SplineSet
161 141 m 1
 161 282 l 1
 898 628 l 1
 163 1010 l 1
 163 1150 l 1
 1091 666 l 1
 1091 578 l 1
 161 141 l 1
EndSplineSet
EndChar

StartChar: question
Encoding: 63 63 35
Width: 1103
Flags: HMW
HStem: -13 221<495.5 574.5> 1349 131<493 599.5>
VStem: 420 229<70 126> 735 159<1031.5 1209.5>
LayerCount: 2
Fore
SplineSet
535 -13 m 0
 456 -13 420 42 420 98 c 0
 420 154 456 208 535 208 c 0
 614 208 649 154 649 98 c 0
 649 40 614 -13 535 -13 c 0
537 1349 m 0
 431 1349 336 1292 294 1264 c 1
 261 1387 l 1
 334 1441 431 1480 555 1480 c 0
 734 1480 894 1385 894 1143 c 0
 894 854 659 768 560 413 c 1
 477 413 l 1
 486 713 735 925 735 1138 c 0
 735 1281 662 1349 537 1349 c 0
EndSplineSet
EndChar

StartChar: at
Encoding: 64 64 36
Width: 1880
Flags: HMW
HStem: -151 120<714 1006 714 1016.5> 252 112<820 927.5> 256 118<1338.5 1434.5 1338.5 1461.5> 989 102<917.5 1029> 1370 116<763.5 1195>
VStem: 128 144<436.5 841.5 436.5 882> 561 144<525 692.5 525 719> 1618 127<645.5 945.5>
LayerCount: 2
Fore
SplineSet
874 364 m 0xdf
 1026 364 1074 521 1106 717 c 0
 1108 731 1135 886 1149 971 c 1
 1104 981 1047 989 1011 989 c 0
 824 989 705 791 705 594 c 0
 705 456 766 364 874 364 c 0xdf
921 -151 m 0
 452 -151 128 149 128 638 c 0
 128 1126 491 1486 988 1486 c 0
 1417 1486 1745 1210 1745 772 c 0
 1745 430 1547 256 1376 256 c 0xbf
 1246 256 1169 337 1139 465 c 1
 1090 359 998 252 857 252 c 0xdf
 669 252 561 403 561 597 c 0
 561 841 711 1091 995 1091 c 0
 1091 1091 1222 1063 1308 1020 c 1
 1280 820 1243 637 1243 514 c 0
 1243 433 1301 374 1376 374 c 0xbf
 1493 374 1618 511 1618 780 c 0
 1618 1111 1409 1370 981 1370 c 0
 546 1370 272 1049 272 634 c 0
 272 239 504 -31 924 -31 c 0
 1088 -31 1256 -1 1391 83 c 1
 1433 -17 l 1
 1305 -103 1112 -151 921 -151 c 0
EndSplineSet
EndChar

StartChar: A
Encoding: 65 65 37
Width: 1360
Flags: HMW
HStem: 470 122<444 922 444 962 403 922>
VStem: 52 1256<0 0>
LayerCount: 2
Fore
SplineSet
52 0 m 1
 587 1460 l 1
 774 1460 l 1
 1308 0 l 1
 1134 0 l 1
 962 470 l 1
 403 470 l 1
 232 0 l 1
 52 0 l 1
922 592 m 1
 682 1288 l 1
 444 592 l 1
 922 592 l 1
EndSplineSet
EndChar

StartChar: B
Encoding: 66 66 38
Width: 1334
Flags: HMW
HStem: -11 131 710 123<342 654 342 643> 1340 127
VStem: 166 176<128 710 833 1332> 1001 157<1027.5 1179 1027.5 1207> 1044 176<411 411>
LayerCount: 2
Fore
SplineSet
342 710 m 1xf4
 342 128 l 1
 416.804378485 122.613105314 483.814495675 120.059124829 543.817605283 120.059124829 c 0
 973.918159567 120.059124829 1044 251.282155293 1044 411 c 0
 1044 617 925 710 643 710 c 2
 342 710 l 1xf4
342 1332 m 1
 342 833 l 1
 654 833 l 2
 844 833 1001 908 1001 1106 c 0xf8
 1001 1273.2434979 903.661625384 1340.40669514 576.748926197 1340.40669514 c 0
 508.810010439 1340.40669514 430.955997944 1337.50598053 342 1332 c 1
1220.09942806 424.816883721 m 0
 1220.09942806 105.419117764 1025.50011149 -11.8775978183 496.550426925 -11.8775978183 c 0
 398.217209434 -11.8775978183 288.332321798 -7.75457149818 166 0 c 1
 166 1445 l 1
 313.649029482 1460.06918456 439.33744338 1466.78241787 546.329383064 1466.78241787 c 0
 1140.58136601 1466.78241787 1158.06838358 1259.68680532 1158.06838358 1126.95885309 c 0
 1158.06838358 1118.65880821 1158 1110.64958062 1158 1103 c 0
 1158 952 1087 829 907 780 c 1
 1153.46787301 741.85616251 1220.09942806 613.794166035 1220.09942806 424.816883721 c 0
EndSplineSet
EndChar

StartChar: C
Encoding: 67 67 39
Width: 1282
Flags: HMW
HStem: -20 139.987 1340 140
VStem: 110 177<548.5 907.5 548.5 954.5>
LayerCount: 2
Fore
SplineSet
1149 1245 m 1
 1059.34378428 1299.21073508 923.332209944 1340.17835093 796.17948134 1340.17835093 c 0
 471.385185533 1340.17835093 287 1080.68547185 287 729 c 0
 287 368 487 121.986543838 824 119.986543838 c 0
 825.420752218 119.986543838 826.838270119 119.986543838 828.252532618 119.986543838 c 0
 984.116557028 119.986543838 1100.44061303 174.206818361 1149 197 c 1
 1190 66 l 1
 1137 39 999 -20 805 -20 c 0
 399 -20 110 274 110 735 c 0
 110 1170.51868648 375.734725812 1480.05942887 786.130842386 1480.05942887 c 0
 961.20664998 1480.05942887 1111.37993039 1429.01936964 1202 1372 c 1
 1149 1245 l 1
EndSplineSet
EndChar

StartChar: D
Encoding: 68 68 40
Width: 1472
Flags: HMW
HStem: -11 137 1341 128
VStem: 166 176<132 1332 132 1446 132 1446> 1186 176<528 985>
LayerCount: 2
Fore
SplineSet
342 1332 m 1
 342 132 l 1
 392.782816941 127.964279448 440.992507712 125.985646027 486.702771252 125.985646027 c 0
 984.660638811 125.985646027 1186 360.799159619 1186 729 c 0
 1186 1179.70991211 988.396570801 1340.6014614 539.299668649 1340.6014614 c 0
 478.228926999 1340.6014614 412.507542509 1337.62623854 342 1332 c 1
166 0 m 1
 166 1446 l 1
 302.786536795 1461.29655895 425.208627278 1468.87006469 534.532652167 1468.87006469 c 0
 1168.49335053 1468.87006469 1362 1214.19266643 1362 734 c 0
 1362 283.306478253 1131.36137543 -11.2001854529 421.836475076 -11.2001854529 c 0
 342.63919966 -11.2001854529 257.475452472 -7.53090991814 166 0 c 1
EndSplineSet
EndChar

StartChar: E
Encoding: 69 69 41
Width: 1135
Flags: HMW
HStem: 0 134<342 1051> 689 132<342 980 342 980> 1328 132<342 1042 342 342>
VStem: 166 176<134 689 821 1328>
LayerCount: 2
Fore
SplineSet
166 0 m 1
 166 1460 l 1
 1048 1460 l 1
 1042 1328 l 1
 342 1328 l 1
 342 821 l 1
 980 821 l 1
 980 689 l 1
 342 689 l 1
 342 134 l 1
 1063 134 l 1
 1051 0 l 1
 166 0 l 1
EndSplineSet
EndChar

StartChar: F
Encoding: 70 70 42
Width: 1064
Flags: HMW
HStem: 669 128<342 937 342 937> 1325 135<342 981 342 342>
VStem: 166 176<0 669 797 1325>
LayerCount: 2
Fore
SplineSet
166 0 m 1
 166 1460 l 1
 991 1460 l 1
 981 1325 l 1
 342 1325 l 1
 342 797 l 1
 937 797 l 1
 937 669 l 1
 342 669 l 1
 342 0 l 1
 166 0 l 1
EndSplineSet
EndChar

StartChar: G
Encoding: 71 71 43
Width: 1439
Flags: HMW
HStem: -20 140<634.5 892.5 634.5 894> 605 140<813 1131 806 1294> 1340 140<657 909 605.5 923>
VStem: 110 177<549 901.5 549 942.5> 1131 163<163 605 605 605>
LayerCount: 2
Fore
SplineSet
796 -20 m 0
 347 -20 110 305 110 728 c 0
 110 1157 386 1480 825 1480 c 0
 993 1480 1129 1449 1257 1372 c 1
 1204 1245 l 1
 1130 1286 1018 1340 828 1340 c 0
 486 1340 287 1074 287 729 c 0
 287 369 442 120 827 120 c 0
 958 120 1063 142 1131 163 c 1
 1131 605 l 1
 806 605 l 1
 813 745 l 1
 1294 745 l 1
 1294 70 l 1
 1147 13 992 -20 796 -20 c 0
EndSplineSet
EndChar

StartChar: H
Encoding: 72 72 44
Width: 1444
Flags: HMW
HStem: 0 1460<166 342 166 342 166 1102 1102 1278> 681 139<342 1102 342 1102>
VStem: 166 176<0 681 820 1460> 1102 176<0 681 681 681 820 1460 0 1460>
LayerCount: 2
Fore
SplineSet
166 0 m 1xb0
 166 1460 l 1
 342 1460 l 1xb0
 342 820 l 1
 1102 820 l 1x70
 1102 1460 l 1
 1278 1460 l 1
 1278 0 l 1
 1102 0 l 1xb0
 1102 681 l 1
 342 681 l 1x70
 342 0 l 1
 166 0 l 1xb0
EndSplineSet
EndChar

StartChar: I
Encoding: 73 73 45
Width: 818
Flags: HMW
HStem: 0 107<130 322 498 688 130 322> 1353 107<130 322 130 688 498 688 498 498>
VStem: 322 176<107 1353 107 1353>
LayerCount: 2
Fore
SplineSet
130 1460 m 1
 688 1460 l 1
 688 1353 l 1
 498 1353 l 1
 498 107 l 1
 688 107 l 1
 688 0 l 1
 130 0 l 1
 130 107 l 1
 322 107 l 1
 322 1353 l 1
 130 1353 l 1
 130 1460 l 1
EndSplineSet
EndChar

StartChar: J
Encoding: 74 74 46
Width: 713
Flags: HMW
HStem: -176 1636<36 547>
VStem: 371 176<271 296 296 1460>
LayerCount: 2
Fore
SplineSet
112 -168 m 2
 36 -176 l 1
 20 -35 l 1
 100 -23 l 2
 306 8 371 78 371 271 c 2
 371 1460 l 1
 547 1460 l 1
 547 296 l 2
 547 -4 437 -134 112 -168 c 2
EndSplineSet
EndChar

StartChar: K
Encoding: 75 75 47
Width: 1258
Flags: HMW
HStem: 0 1460<166 342 166 342 1026 1026 1026 1202 166 1232>
VStem: 166 176<0 601 761 1460>
LayerCount: 2
Fore
SplineSet
166 0 m 1
 166 1460 l 1
 342 1460 l 1
 342 761 l 1
 996 1460 l 1
 1202 1460 l 1
 604 811 l 1
 1232 0 l 1
 1026 0 l 1
 472 721 l 1
 342 601 l 1
 342 0 l 1
 166 0 l 1
EndSplineSet
EndChar

StartChar: L
Encoding: 76 76 48
Width: 1068
Flags: HMW
HStem: 0 134<342 1012>
VStem: 166 176<134 1460 134 1460 134 1460>
LayerCount: 2
Fore
SplineSet
166 0 m 1
 166 1460 l 1
 342 1460 l 1
 342 134 l 1
 1016 134 l 1
 1012 0 l 1
 166 0 l 1
EndSplineSet
EndChar

StartChar: M
Encoding: 77 77 49
Width: 1754
Flags: HMW
HStem: 0 1460<166 411 195 332 1434 1434 1434 1569 195 1598>
VStem: 180.5 165.5 1420 163.5
LayerCount: 2
Fore
SplineSet
166 0 m 1
 195 1460 l 1
 411 1460 l 1
 884 360 l 1
 1359 1460 l 1
 1569 1460 l 1
 1598 0 l 1
 1434 0 l 1
 1420 905 l 1
 1420 1234 l 1
 957 163 l 1
 806 163 l 1
 346 1246 l 1
 346 901 l 1
 332 0 l 1
 166 0 l 1
EndSplineSet
EndChar

StartChar: N
Encoding: 78 78 50
Width: 1490
Flags: HMW
HStem: 0 1460<166 340 166 329 166 1145 1164 1326 166 1326>
VStem: 166 163<0 781 0 1460> 1164 162<628 1460 0 1460>
LayerCount: 2
Fore
SplineSet
166 0 m 1
 166 1460 l 1
 340 1460 l 1
 1173 217 l 1
 1164 628 l 1
 1164 1460 l 1
 1326 1460 l 1
 1326 0 l 1
 1145 0 l 1
 315 1235 l 1
 329 781 l 1
 329 0 l 1
 166 0 l 1
EndSplineSet
EndChar

StartChar: O
Encoding: 79 79 51
Width: 1596
Flags: HMW
HStem: -20 140<624 974 624 1022> 1340 140<631 971.5>
VStem: 110 177<548 902 548 948> 1310 176<548 901>
LayerCount: 2
Fore
SplineSet
799 120 m 0
 1149 120 1310 375 1310 721 c 0
 1310 1081 1142 1340 801 1340 c 0
 461 1340 287 1083 287 721 c 0
 287 375 449 120 799 120 c 0
801 -20 m 0
 354 -20 110 281 110 722 c 0
 110 1174 364 1480 802 1480 c 0
 1231 1480 1486 1171 1486 720 c 0
 1486 287 1243 -20 801 -20 c 0
EndSplineSet
EndChar

StartChar: P
Encoding: 80 80 52
Width: 1196
Flags: HMW
HStem: 659 132 1334 132
VStem: 166 176<0 659 794 1328> 955 176<988.5 1194>
LayerCount: 2
Fore
SplineSet
166 0 m 1
 166 1455 l 1
 299.757829586 1462.23470022 415.823363598 1466.21401805 516.363645641 1466.21401805 c 0
 1013.39230197 1466.21401805 1131 1368.96364248 1131 1087 c 0
 1131 847.019015056 1034.59268556 657.027007972 449.600896493 657.027007972 c 0
 415.427319363 657.027007972 379.586414384 657.675368656 342 659 c 1
 342 0 l 1
 166 0 l 1
342 1328 m 1
 342 794 l 1
 387.571130305 792.124980327 429.786064239 791.206975065 468.889150776 791.206975065 c 0
 909.445559798 791.206975065 955 907.733860731 955 1085 c 0
 955 1269.24865375 887.139154769 1334.20508483 553.393690508 1334.20508483 c 0
 492.256968503 1334.20508483 422.19815302 1332.02538992 342 1328 c 1
EndSplineSet
EndChar

StartChar: Q
Encoding: 81 81 53
Width: 1596
Flags: HMW
HStem: -20 140<624 831> 1340 140<631 971.5>
VStem: 110 177<548 902 548 948> 1310 176<560.5 901>
LayerCount: 2
Fore
SplineSet
799 120 m 0
 1149 120 1310 375 1310 721 c 0
 1310 1081 1142 1340 801 1340 c 0
 461 1340 287 1083 287 721 c 0
 287 375 449 120 799 120 c 0
1260 -401 m 1
 1195 -340 1061 -167 969 -4 c 1
 917 -14 861 -20 801 -20 c 0
 354 -20 110 281 110 722 c 0
 110 1174 364 1480 802 1480 c 0
 1231 1480 1486 1171 1486 720 c 0
 1486 401 1354 151 1108 41 c 1
 1170 -67 1288 -217 1372 -303 c 1
 1260 -401 l 1
EndSplineSet
EndChar

StartChar: R
Encoding: 82 82 54
Width: 1335
Flags: HMW
HStem: 666 126 1340 128<543 754.5>
VStem: 166 176<0 674 799 1332> 1044 158
LayerCount: 2
Fore
SplineSet
581 1468 m 0
 1040.41052286 1468 1202.15777694 1337.9669142 1202.15777694 1070.61667115 c 0
 1202.15777694 849.857736267 1088.57924187 731.136899603 883 691 c 1
 1247 0 l 1
 1050 0 l 1
 712 669 l 1
 673.925567196 666.884753733 632.746541122 666.0478694 591.498080291 666.0478694 c 0
 496.24270687 666.0478694 400.617044797 670.510890191 342 674 c 1
 342 0 l 1
 166 0 l 1
 166 1445 l 1
 299 1460 441 1468 581 1468 c 0
342 1332 m 1
 342 799 l 1
 431.303883521 794.102163609 510.212619809 791.38997356 579.731428668 791.38997356 c 0
 933.360052386 791.38997356 1044.01881085 861.569477695 1044.01881085 1071.23430381 c 0
 1044.01881085 1248.93793767 934.640025893 1340 577 1340 c 0
 509 1340 371 1336 342 1332 c 1
EndSplineSet
EndChar

StartChar: S
Encoding: 83 83 55
Width: 1183
Flags: HMW
HStem: -20 140<532 687.5 532 713> 1340 140<525 673.5>
VStem: 137 167 909 165<289.5 471>
LayerCount: 2
Fore
SplineSet
612 1340 m 0
 429.3399599 1340 302.984628012 1299.79048804 302.984628012 1091.38213801 c 0
 302.984628012 971.179203486 366.943484618 937.47680909 490 889 c 0
 875 735 1074 719 1074 384 c 0
 1074 71 834 -20 592 -20 c 0
 409 -20 244 33 146 100 c 1
 193 233 l 1
 328 150 469 120 595 120 c 0
 780 120 909 186 909 393 c 0
 909 549 842 582 671 651 c 0
 329.280101645 789.586403222 135.327859038 809.237864013 135.327859038 1085.41796815 c 0
 135.327859038 1390.66357685 345.982348361 1480 606 1480 c 0
 752 1480 907 1443 1022 1372 c 1
 969 1245 l 1
 873 1303 735 1340 612 1340 c 0
EndSplineSet
EndChar

StartChar: T
Encoding: 84 84 56
Width: 1115
Flags: HMW
HStem: 1326 134<34 468 34 1081 644 644 644 1081>
VStem: 468 176<0 1326 0 1326>
LayerCount: 2
Fore
SplineSet
468 0 m 1
 468 1326 l 1
 34 1326 l 1
 34 1460 l 1
 1081 1460 l 1
 1081 1326 l 1
 644 1326 l 1
 644 0 l 1
 468 0 l 1
EndSplineSet
EndChar

StartChar: U
Encoding: 85 85 57
Width: 1412
Flags: HMW
HStem: -20 140<570 837.5 570 898>
VStem: 134 176<529 532 532 1460> 1102 176<532 1460>
LayerCount: 2
Fore
SplineSet
706 -20 m 0
 318 -20 134 205 134 529 c 2
 134 1460 l 1
 310 1460 l 1
 310 532 l 2
 310 264 434 120 706 120 c 0
 969 120 1102 264 1102 532 c 2
 1102 1460 l 1
 1278 1460 l 1
 1278 526 l 2
 1278 211 1090 -20 706 -20 c 0
EndSplineSet
EndChar

StartChar: V
Encoding: 86 86 58
Width: 1352
Flags: HMW
HStem: 0 1460<60 599 60 753>
VStem: 60 1232<1460 1460>
LayerCount: 2
Fore
SplineSet
599 0 m 1
 60 1460 l 1
 242 1460 l 1
 677 215 l 1
 1111 1460 l 1
 1292 1460 l 1
 753 0 l 1
 599 0 l 1
EndSplineSet
EndChar

StartChar: W
Encoding: 87 87 59
Width: 2049
Flags: HMW
HStem: 0 1460<50 489 50 656 50 1389 50 1560>
VStem: 50 1949<1460 1460>
LayerCount: 2
Fore
SplineSet
489 0 m 1
 50 1460 l 1
 217 1460 l 1
 576 223 l 1
 940 1429 l 1
 1110 1429 l 1
 1473 224 l 1
 1829 1460 l 1
 1999 1460 l 1
 1560 0 l 1
 1389 0 l 1
 1027 1219 l 1
 656 0 l 1
 489 0 l 1
EndSplineSet
EndChar

StartChar: X
Encoding: 88 88 60
Width: 1275
Flags: HMW
HStem: 0 1460<74 257 71 275 1009 1197 74 1204 74 1005>
VStem: 71 1133<0 0>
LayerCount: 2
Fore
SplineSet
1005 0 m 1
 630 589 l 1
 257 0 l 1
 71 0 l 1
 538 732 l 1
 74 1460 l 1
 275 1460 l 1
 650 871 l 1
 1009 1460 l 1
 1197 1460 l 1
 738 732 l 1
 1204 0 l 1
 1005 0 l 1
EndSplineSet
EndChar

StartChar: Y
Encoding: 89 89 61
Width: 1234
Flags: HMW
HStem: 0 1460<50 542 50 718>
VStem: 542 176<0 603 603 603>
LayerCount: 2
Fore
SplineSet
542 0 m 1
 542 603 l 1
 50 1460 l 1
 224 1460 l 1
 629 750 l 1
 1010 1460 l 1
 1184 1460 l 1
 718 605 l 1
 718 0 l 1
 542 0 l 1
EndSplineSet
EndChar

StartChar: Z
Encoding: 90 90 62
Width: 1224
Flags: HMW
HStem: 0 134<349 1097> 1328 132<182 902 182 1091>
VStem: 149 952 182 912.5
LayerCount: 2
Fore
SplineSet
149 0 m 1xe0
 149 124 l 1xe0
 902 1328 l 1
 182 1328 l 1
 182 1460 l 1xd0
 1091 1460 l 1
 1098 1339 l 1
 349 134 l 1
 1105 134 l 1
 1097 0 l 1
 149 0 l 1xe0
EndSplineSet
EndChar

StartChar: bracketleft
Encoding: 91 91 63
Width: 674
Flags: HMW
HStem: -255 117<347 635 347 635> 1342 118<347 635 347 347>
VStem: 171 176<-138 1342 -138 1460 -138 1460>
LayerCount: 2
Fore
SplineSet
635 -255 m 1
 171 -255 l 1
 171 1460 l 1
 635 1460 l 1
 635 1342 l 1
 347 1342 l 1
 347 -138 l 1
 635 -138 l 1
 635 -255 l 1
EndSplineSet
EndChar

StartChar: backslash
Encoding: 92 92 64
Width: 924
Flags: HMW
HStem: -20 1480<126 800 126 670>
VStem: 126 674
LayerCount: 2
Fore
SplineSet
800 -20 m 1
 670 -20 l 1
 126 1460 l 1
 257 1460 l 1
 800 -20 l 1
EndSplineSet
EndChar

StartChar: bracketright
Encoding: 93 93 65
Width: 676
Flags: HMW
HStem: -255 117<58 346 58 522 58 346> 1342 118<58 346 58 522>
VStem: 346 176<-138 1342 1342 1342>
LayerCount: 2
Fore
SplineSet
522 -255 m 1
 58 -255 l 1
 58 -138 l 1
 346 -138 l 1
 346 1342 l 1
 58 1342 l 1
 58 1460 l 1
 522 1460 l 1
 522 -255 l 1
EndSplineSet
EndChar

StartChar: asciicircum
Encoding: 94 94 66
Width: 775
Flags: HMW
HStem: 1087 373<108 475 108 475 288 531 288 643>
VStem: 108 535<1087 1087>
LayerCount: 2
Fore
SplineSet
108 1087 m 1
 288 1460 l 1
 475 1460 l 1
 643 1087 l 1
 531 1087 l 1
 377 1361 l 1
 219 1087 l 1
 108 1087 l 1
EndSplineSet
EndChar

StartChar: underscore
Encoding: 95 95 67
Width: 1057
Flags: HMW
HStem: -260 119<84 980 84 980>
VStem: 84 896<-260 -141 -260 -141>
LayerCount: 2
Fore
SplineSet
84 -260 m 1
 84 -141 l 1
 980 -141 l 1
 980 -260 l 1
 84 -260 l 1
EndSplineSet
EndChar

StartChar: grave
Encoding: 96 96 68
Width: 650
Flags: HMW
HStem: 1058 402<144 414 144 508>
VStem: 144 364
LayerCount: 2
Fore
SplineSet
414 1058 m 1
 144 1460 l 1
 332 1460 l 1
 508 1058 l 1
 414 1058 l 1
EndSplineSet
EndChar

StartChar: a
Encoding: 97 97 69
Width: 1053
Flags: HMW
HStem: -20 121<373.5 473> 481 111<431 567 376.5 574> 954 126<463 596.5>
VStem: 96 158<223 344 223 377.5> 746 164<275 467 467 467 578 699 0 723 0 799.5>
LayerCount: 2
Fore
SplineSet
746 578 m 1
 746 723 l 2
 746 876 678 954 515 954 c 0
 411 954 295 930 195 881 c 1
 150 1003 l 1
 264 1056 390 1080 512 1080 c 0
 753 1080 910 981 910 699 c 2
 910 0 l 1
 784 0 l 1
 766 147 l 1
 660 17 534 -20 412 -20 c 0
 221 -20 96 89 96 285 c 0
 96 470 217 592 536 592 c 0
 598 592 668 588 746 578 c 1
746 275 m 1
 746 467 l 1
 669 477 602 481 546 481 c 0
 316 481 254 404 254 284 c 0
 254 162 327 101 420 101 c 0
 564 101 667 157 746 275 c 1
EndSplineSet
EndChar

StartChar: b
Encoding: 98 98 70
Width: 1175
Flags: HMW
HStem: -20 127<552 727 522 784.5> 954 126<568.5 738.5>
VStem: 148 164<1078 1460 1460 1460> 917 170<398 653.5>
LayerCount: 2
Fore
SplineSet
621 107 m 0
 833 107 917 268 917 528 c 0
 917 779 846 954 631 954 c 0
 404 954 305 792 305 545 c 0
 305 254 423 107 621 107 c 0
637 -20 m 0
 467 -20 356 87 294 189 c 1
 279 0 l 1
 148 0 l 1
 148 1460 l 1
 312 1472 l 1
 312 1078 l 1
 307 887 l 1
 381 1003 492 1080 645 1080 c 0
 944 1080 1087 858 1087 528 c 0
 1087 199 932 -20 637 -20 c 0
EndSplineSet
EndChar

StartChar: c
Encoding: 99 99 71
Width: 942
Flags: HMW
HStem: -20 126<490 651> 954 126
VStem: 84 170<410 703 410 853.5>
LayerCount: 2
Fore
SplineSet
611 106 m 0
 697 106 782 135 834 166 c 1
 865 53 l 1
 827 23 722 -20 580 -20 c 0
 276 -20 84 195 84 524 c 0
 84 957.954042399 352.415317861 1080.13003384 583.141423765 1080.13003384 c 0
 702.794595239 1080.13003384 812.311640422 1047.27205633 869 1008 c 1
 822 894 l 1
 733.938586462 935.112244937 653.99206784 954.262750461 583.713160525 954.262750461 c 0
 377.062822003 954.262750461 254 788.684807173 254 529 c 0
 254 291 369 106 611 106 c 0
EndSplineSet
EndChar

StartChar: d
Encoding: 100 100 72
Width: 1172
Flags: HMW
HStem: -20 126<449 634.5> 954 126<461 634.5 400.5 665.5>
VStem: 87 168<408 665.5 408 697> 860 164<1131 1460 1460 1460>
LayerCount: 2
Fore
SplineSet
868 886 m 1
 860 1131 l 1
 860 1460 l 1
 1024 1472 l 1
 1024 0 l 1
 888 0 l 1
 873 187 l 1
 818 76 726 -20 543 -20 c 0
 246 -20 87 202 87 537 c 0
 87 857 259 1080 542 1080 c 0
 727 1080 809 996 868 886 c 1
557 106 m 0
 786 106 866 271 867 518 c 1
 867 805 765 954 566 954 c 0
 356 954 255 797 255 534 c 0
 255 282 341 106 557 106 c 0
EndSplineSet
EndChar

StartChar: e
Encoding: 101 101 73
Width: 1064
Flags: HMW
HStem: -20 126<509.5 663.5> 503 108<260 836 260 970 255 836> 954 126<486.5 656>
VStem: 86 169<503 503 503 696.5> 836 140<611 611>
LayerCount: 2
Fore
SplineSet
836 611 m 1
 828 836 740 954 572 954 c 0
 401 954 279 822 260 611 c 1
 836 611 l 1
587 -20 m 0
 294 -20 86 185 86 524 c 0
 86 869 294 1080 568 1080 c 0
 837 1080 976 891 976 587 c 0
 976 561 970 503 970 503 c 1
 255 503 l 1
 266 222 413 106 606 106 c 0
 726 106 812 141 909 190 c 1
 944 73 l 1
 846 15 740 -20 587 -20 c 0
EndSplineSet
EndChar

StartChar: f
Encoding: 102 102 74
Width: 723
Flags: HMW
HStem: 954 102<51 245 409 660> 1358 122<511.5 569 439.5 585>
VStem: 245 164<0 954 0 954 1056 1124 1124 1134>
LayerCount: 2
Fore
SplineSet
245 0 m 1
 245 954 l 1
 51 954 l 1
 56 1040 l 1
 245 1056 l 1
 245 1124 l 2
 245 1392 347 1480 532 1480 c 0
 606 1480 655 1467 676 1463 c 1
 664 1348 l 1
 654 1350 608 1358 562 1358 c 0
 461 1358 409 1334 409 1134 c 2
 409 1056 l 1
 660 1056 l 1
 660 954 l 1
 409 954 l 1
 409 0 l 1
 245 0 l 1
EndSplineSet
EndChar

StartChar: g
Encoding: 103 103 75
Width: 1172
Flags: HMW
HStem: -476 136<489 643 489 711> -20 126<449 612.5> 954 126<437 605.5 378.5 657.5>
VStem: 88 170<399.5 650 399.5 691.5> 867 157<185 185 407 545>
LayerCount: 2
Fore
SplineSet
860 37 m 2
 867 185 l 1
 804 71 697 -20 528 -20 c 0
 245 -20 88 205 88 526 c 0
 88 857 232 1080 525 1080 c 0
 686 1080 800 999 871 873 c 1
 888 1058 l 1
 1024 1058 l 1
 1024 84 l 2
 1024 -270 890 -476 532 -476 c 0
 441 -476 334 -463 211 -435 c 1
 224 -297 l 1
 343 -325 446 -340 532 -340 c 0
 754 -340 847 -234 860 37 c 2
554 106 m 0
 755 106 867 269 867 545 c 1
 866 789 771 954 544 954 c 0
 330 954 258 772 258 528 c 0
 258 271 344 106 554 106 c 0
EndSplineSet
EndChar

StartChar: h
Encoding: 104 104 76
Width: 1160
Flags: HMW
HStem: 954 126<586 713>
VStem: 151 163<0 579 0 1460> 854 166<0 648 648 654 0 750>
LayerCount: 2
Fore
SplineSet
151 0 m 1
 151 1460 l 1
 315 1472 l 1
 315 1118 l 1
 309 905 l 1
 385 1022 511 1080 661 1080 c 0
 893 1080 1020 925 1020 654 c 2
 1020 0 l 1
 854 0 l 1
 854 648 l 2
 854 852 794 954 632 954 c 0
 378 954 314 763 314 579 c 2
 314 0 l 1
 151 0 l 1
EndSplineSet
EndChar

StartChar: i
Encoding: 105 105 77
Width: 506
Flags: HMW
HStem: 1247 213<221 284.5>
VStem: 144 218<1322.5 1385.5> 170 164<0 1056 0 1056>
LayerCount: 2
Fore
SplineSet
170 0 m 1xa0
 170 1056 l 1
 334 1056 l 1
 334 0 l 1
 170 0 l 1xa0
144 1354 m 0xc0
 144 1417 189 1460 253 1460 c 0
 316 1460 362 1417 362 1354 c 0
 362 1291 316 1247 253 1247 c 0
 189 1247 144 1291 144 1354 c 0xc0
EndSplineSet
EndChar

StartChar: j
Encoding: 106 106 78
Width: 553
Flags: HMW
HStem: 1247 213<267 330.5>
VStem: 19 389 214 164<11 1056>
LayerCount: 2
Fore
SplineSet
19 -378 m 1xc0
 0 -250 l 1
 62 -238 l 2
 211 -209 214 -174 214 11 c 2
 214 1056 l 1
 378 1056 l 1
 378 -19 l 2xa0
 378 -272 298 -345 78 -371 c 2
 19 -378 l 1xc0
190 1354 m 0
 190 1417 235 1460 299 1460 c 0
 362 1460 408 1417 408 1354 c 0xc0
 408 1291 362 1247 299 1247 c 0
 235 1247 190 1291 190 1354 c 0
EndSplineSet
EndChar

StartChar: k
Encoding: 107 107 79
Width: 1065
Flags: HMW
HStem: 0 1056<152 1007 152 1007 850 850 850 1007 806 1045> 0 1472<152 316 152 316 316 850 316 1045>
VStem: 152 164<0 387 739 1460 1460 1460>
LayerCount: 2
Fore
SplineSet
152 0 m 1xa0
 152 1460 l 1
 316 1472 l 1x60
 316 739 l 1
 310 521 l 1
 806 1056 l 1
 1007 1056 l 1
 545 575 l 1
 1045 0 l 1
 850 0 l 1
 430 495 l 1
 316 387 l 1
 316 0 l 1
 152 0 l 1xa0
EndSplineSet
EndChar

StartChar: l
Encoding: 108 108 80
Width: 627
Flags: HMW
HStem: -8 118
VStem: 148 164<303 1460 1460 1460>
LayerCount: 2
Fore
SplineSet
488 -8 m 2
 272 -8 148 44 148 303 c 2
 148 1460 l 1
 312 1472 l 1
 312 300 l 2
 312 132 354 118 527 111 c 2
 576 109 l 1
 567 -8 l 1
 488 -8 l 2
EndSplineSet
EndChar

StartChar: m
Encoding: 109 109 81
Width: 1731
Flags: HMW
HStem: 0 1056<148 280 148 280 148 312 148 793 148 957> 954 126<554 676 1187.5 1332.5>
VStem: 148 164<0 645 0 1056> 793 164<0 543 0 594 0 718.5> 1427 164<0 630 630 682 0 705.5>
LayerCount: 2
Fore
SplineSet
148 0 m 1xb8
 148 1056 l 1
 280 1056 l 1xb8
 299 902 l 1
 372 1008 481 1080 627 1080 c 0
 800 1080 874 984 918 865 c 1
 990 995 1106 1080 1269 1080 c 0x78
 1489 1080 1591 941 1591 682 c 2
 1591 0 l 1
 1427 0 l 1xb8
 1427 630 l 2
 1427 781 1422 954 1243 954 c 0x78
 1121 954 1006 872 968 708 c 1
 960 680 959 626 957 543 c 1
 957 0 l 1
 793 0 l 1xb8
 793 594 l 2
 793 843 752 954 600 954 c 0x78
 430 954 338 819 312 645 c 1
 312 0 l 1
 148 0 l 1xb8
EndSplineSet
EndChar

StartChar: n
Encoding: 110 110 82
Width: 1163
Flags: HMW
HStem: 0 1056<148 290 148 290 148 312 148 859 148 1023> 954 126<583.5 725>
VStem: 148 164<0 590 0 1056> 859 164<0 647 0 665 0 754>
LayerCount: 2
Fore
SplineSet
148 0 m 1xb0
 148 1056 l 1
 290 1056 l 1xb0
 308 912 l 1
 381 1014 498 1080 669 1080 c 0x70
 913 1080 1023 935 1023 647 c 2
 1023 0 l 1
 859 0 l 1xb0
 859 665 l 2
 859 843 810 954 640 954 c 0x70
 384 954 312 782 312 590 c 2
 312 0 l 1
 148 0 l 1xb0
EndSplineSet
EndChar

StartChar: o
Encoding: 111 111 83
Width: 1165
Flags: HMW
HStem: -20 126<471.5 695.5 471.5 734> 954 126<472 695>
VStem: 84 170<406.5 650.5 406.5 691> 911 170<405.5 649.5>
LayerCount: 2
Fore
SplineSet
582 106 m 0
 809 106 911 285 911 526 c 0
 911 773 808 954 582 954 c 0
 362 954 254 774 254 527 c 0
 254 286 361 106 582 106 c 0
582 -20 m 0
 270 -20 84 210 84 528 c 0
 84 854 266 1080 582 1080 c 0
 901 1080 1081 854 1081 528 c 0
 1081 210 886 -20 582 -20 c 0
EndSplineSet
EndChar

StartChar: p
Encoding: 112 112 84
Width: 1168
Flags: HMW
HStem: -464 1520<148 284 148 284 148 312> -20 126<559.5 723 517.5 785.5> 954 126<566.5 735>
VStem: 148 164<-464 -66 -464 1056> 914 170<399.5 650>
LayerCount: 2
Fore
SplineSet
148 -464 m 1x98
 148 1056 l 1
 284 1056 l 1x98
 301 873 l 1
 372 999 486 1080 647 1080 c 0
 940 1080 1084 857 1084 526 c 0
 1084 205 927 -20 644 -20 c 0x78
 475 -20 368 73 305 179 c 1
 312 -66 l 1
 312 -464 l 1
 148 -464 l 1x98
618 106 m 0x78
 828 106 914 271 914 528 c 0
 914 772 842 954 628 954 c 0
 401 954 306 789 305 545 c 1
 305 269 417 106 618 106 c 0x78
EndSplineSet
EndChar

StartChar: q
Encoding: 113 113 85
Width: 1168
Flags: HMW
HStem: -464 1520<884 1020 884 1020 856 1020> -20 126<445 608.5> 954 126<433 601.5 374.5 653.5>
VStem: 84 170<399.5 650 399.5 691.5> 856 164<-464 -66 -66 -66>
LayerCount: 2
Fore
SplineSet
550 106 m 0x78
 751 106 863 269 863 545 c 1
 862 789 767 954 540 954 c 0
 326 954 254 772 254 528 c 0
 254 271 340 106 550 106 c 0x78
1020 -464 m 1x98
 856 -464 l 1x98
 856 -66 l 1
 863 185 l 1
 800 71 693 -20 524 -20 c 0
 241 -20 84 205 84 526 c 0
 84 857 228 1080 521 1080 c 0x78
 682 1080 796 999 867 873 c 1
 884 1056 l 1
 1020 1056 l 1
 1020 -464 l 1x98
EndSplineSet
EndChar

StartChar: r
Encoding: 114 114 86
Width: 747
Flags: HMW
HStem: 0 1056<148 279 148 279 148 312> 936 133<567 636>
VStem: 148 164<0 599 0 1056>
LayerCount: 2
Fore
SplineSet
148 0 m 1xa0
 148 1056 l 1
 279 1056 l 1xa0
 297 848 l 1
 382 1009 508 1069 626 1069 c 0
 656 1069 677 1068 700 1064 c 1
 693 928 l 1
 668 933 647 936 625 936 c 0x60
 440 936 312 783 312 599 c 2
 312 0 l 1
 148 0 l 1xa0
EndSplineSet
EndChar

StartChar: s
Encoding: 115 115 87
Width: 886
Flags: HMW
HStem: -20 126<398 518.5 398 547> 954 126<380 501 329.5 514>
VStem: 99 153<759.5 797 797 807 759.5 881.5> 652 150<220.5 320.5>
LayerCount: 2
Fore
SplineSet
460 954 m 0
 300 954 256 904 252 807 c 1
 252 797 l 2
 252 722 288 690 425 631 c 0
 729 501 802 457 802 288 c 0
 802 70 649 -20 445 -20 c 0
 338 -20 197 11 100 66 c 1
 139 188 l 1
 240 132 348 106 448 106 c 0
 589 106 652 160 652 281 c 0
 652 360 621 403 456 467 c 0
 161 581 99 653 99 794 c 0
 99 969 219 1080 440 1080 c 0
 562 1080 688 1051 776 1006 c 1
 738 882 l 1
 681 912 568 954 460 954 c 0
EndSplineSet
EndChar

StartChar: t
Encoding: 116 116 88
Width: 733
Flags: HMW
HStem: -8 116 954 102<38 205 365 645>
VStem: 201 164<317 954>
LayerCount: 2
Fore
SplineSet
581 -8 m 2
 282 -8 201 67 201 317 c 2
 201 954 l 1
 38 954 l 1
 42 1047 l 1
 205 1056 l 1
 232 1338 l 1
 365 1348 l 1
 365 1056 l 1
 645 1056 l 1
 645 954 l 1
 365 954 l 1
 365 317 l 2
 365 146 398 117 574 110 c 1
 658 106 l 1
 650 -8 l 1
 581 -8 l 2
EndSplineSet
EndChar

StartChar: u
Encoding: 117 117 89
Width: 1150
Flags: HMW
HStem: -20 126<446 602.5> 0 1056<860 1002 860 860>
VStem: 140 164<412 1056> 838 164<464 1056 0 1056>
LayerCount: 2
Fore
SplineSet
1002 1056 m 1x70
 1002 0 l 1
 860 0 l 1x70
 843 139 l 1
 780 40 694 -20 511 -20 c 0xb0
 267 -20 140 124 140 412 c 2
 140 1056 l 1
 304 1056 l 1x70
 304 394 l 2
 304 216 361 106 531 106 c 0xb0
 768 106 838 262 838 464 c 2
 838 1056 l 1
 1002 1056 l 1x70
EndSplineSet
EndChar

StartChar: v
Encoding: 118 118 90
Width: 1071
Flags: HMW
HStem: 0 1056<47 455 47 622>
VStem: 47 977<1056 1056>
LayerCount: 2
Fore
SplineSet
455 0 m 1
 47 1056 l 1
 215 1056 l 1
 539 184 l 1
 858 1056 l 1
 1024 1056 l 1
 622 0 l 1
 455 0 l 1
EndSplineSet
EndChar

StartChar: w
Encoding: 119 119 91
Width: 1573
Flags: HMW
HStem: 0 1056<51 361 51 508 51 1084 51 1231>
VStem: 51 1471<1056 1056>
LayerCount: 2
Fore
SplineSet
361 0 m 1
 51 1056 l 1
 208 1056 l 1
 440 203 l 1
 700 1056 l 1
 877 1056 l 1
 1153 206 l 1
 1370 1056 l 1
 1522 1056 l 1
 1231 0 l 1
 1084 0 l 1
 790 904 l 1
 508 0 l 1
 361 0 l 1
EndSplineSet
EndChar

StartChar: x
Encoding: 120 120 92
Width: 1052
Flags: HMW
HStem: 0 1056<69 209 42 254 838 1006 69 1010 69 825>
VStem: 42 968<0 0>
LayerCount: 2
Fore
SplineSet
825 0 m 1
 522 425 l 1
 209 0 l 1
 42 0 l 1
 437 543 l 1
 69 1056 l 1
 254 1056 l 1
 548 647 l 1
 838 1056 l 1
 1006 1056 l 1
 628 535 l 1
 1010 0 l 1
 825 0 l 1
EndSplineSet
EndChar

StartChar: y
Encoding: 121 121 93
Width: 1087
Flags: HMW
HStem: -398 1456<62 474>
VStem: 62 969<1058 1058>
LayerCount: 2
Fore
SplineSet
474 -398 m 1
 325 -366 l 1
 481 32 l 1
 62 1058 l 1
 231 1058 l 1
 561 217 l 1
 863 1058 l 1
 1031 1058 l 1
 474 -398 l 1
EndSplineSet
EndChar

StartChar: z
Encoding: 122 122 94
Width: 872
Flags: HMW
HStem: 0 124<265 798 265 802> 939 119<109 620 109 109>
VStem: 82 718 106 687
LayerCount: 2
Fore
SplineSet
82 0 m 1xe0
 82 107 l 1xe0
 620 939 l 1
 109 939 l 1
 103 1058 l 1
 793 1058 l 1
 793 944 l 1xd0
 265 124 l 1
 798 124 l 1
 802 0 l 1
 82 0 l 1xe0
EndSplineSet
EndChar

StartChar: braceleft
Encoding: 123 123 95
Width: 901
Flags: HMW
HStem: -154 1647<599 716>
VStem: 382 176<184 196 196 310 310 393 1020 1140>
LayerCount: 2
Fore
SplineSet
716 -35 m 1
 716 -154 l 1
 482 -154 382 -35 382 184 c 2
 382 310 l 2
 382 481 372 591 183 593 c 1
 183 739 l 1
 370 739 382 851 382 1020 c 2
 382 1190 l 2
 382 1385 503 1492 716 1493 c 1
 716 1371 l 1
 574 1369 558 1311 558 1140 c 2
 558 943 l 1
 557 793 512 713 380 662 c 1
 511 625 558 548 558 393 c 2
 558 196 l 2
 558 31 572 -33 716 -35 c 1
EndSplineSet
EndChar

StartChar: bar
Encoding: 124 124 96
Width: 602
Flags: HMW
HStem: -216 1766<228 374 228 374>
VStem: 228 146<-216 1550>
LayerCount: 2
Fore
SplineSet
374 -216 m 1
 228 -216 l 1
 228 1550 l 1
 374 1550 l 1
 374 -216 l 1
EndSplineSet
EndChar

StartChar: braceright
Encoding: 125 125 97
Width: 901
Flags: HMW
HStem: -154 1647<223 340>
VStem: 381 176<199 319 51.5 396 946 1029 1029 1143 1143 1155>
LayerCount: 2
Fore
SplineSet
223 1374 m 1
 223 1493 l 1
 457 1493 557 1374 557 1155 c 2
 557 1029 l 2
 557 858 567 748 756 746 c 1
 756 600 l 1
 569 600 557 488 557 319 c 2
 557 149 l 2
 557 -46 436 -153 223 -154 c 1
 223 -32 l 1
 365 -30 381 28 381 199 c 2
 381 396 l 1
 382 546 427 626 559 677 c 1
 428 714 381 791 381 946 c 2
 381 1143 l 2
 381 1308 367 1372 223 1374 c 1
EndSplineSet
EndChar

StartChar: asciitilde
Encoding: 126 126 98
Width: 1204
Flags: HMW
HStem: 505 127<813 884 813 902.5> 649 129<326 405>
VStem: 114 976<585 701>
LayerCount: 2
Fore
SplineSet
370 649 m 0
 282 649 201 577 155 491 c 1
 114 585 l 1
 159 693 245 778 373 778 c 0
 452 778 509 755 609 711 c 1
 704 671 783 632 843 632 c 0
 925 632 1005 704 1043 788 c 1
 1090 701 l 1
 1041 580 964 505 841 505 c 0
 772 505 700 533 619 569 c 0
 515 615 440 649 370 649 c 0
EndSplineSet
EndChar

StartChar: degree
Encoding: 176 176 99
Width: 809
Flags: HMW
HStem: 907 94<351 457.5 351 486> 1386 94<352.5 458>
VStem: 105 108<1136.5 1251 1136.5 1279.5> 597 108<1137 1251>
LayerCount: 2
Fore
SplineSet
404 1001 m 0
 511 1001 597 1080 597 1194 c 0
 597 1308 511 1386 405 1386 c 0
 300 1386 213 1308 213 1194 c 0
 213 1079 298 1001 404 1001 c 0
404 907 m 0
 247 907 105 1024 105 1195 c 0
 105 1364 247 1480 404 1480 c 0
 564 1480 705 1364 705 1195 c 0
 705 1031 568 907 404 907 c 0
EndSplineSet
EndChar

StartChar: cent
Encoding: 162 162 100
Width: 982
Flags: HMW
HStem: -310 416<490 602 488 654> 954 396
VStem: 84 170<410 703 410 720> 488 114<-310 -13> 558 111<1075 1350>
LayerCount: 2
Fore
SplineSet
865 53 m 1xe8
 833 28 752 -7 642 -17 c 1
 602 -310 l 1
 488 -310 l 1
 488 -13 l 1xf0
 238 26 84 230 84 524 c 0
 84 916 303 1054 515 1077 c 1
 558 1350 l 1
 669 1350 l 1
 669 1075 l 1
 753 1064 826 1038 869 1008 c 1
 822 894 l 1
 733.938586462 935.112244937 653.99206784 954.262750461 583.713160525 954.262750461 c 0
 377.062822003 954.262750461 254 788.684807173 254 529 c 0
 254 291 369 106 611 106 c 0
 697 106 782 135 834 166 c 1
 865 53 l 1xe8
EndSplineSet
EndChar

StartChar: sterling
Encoding: 163 163 101
Width: 1204
Flags: HMW
HStem: 0 131<491 1075> 666 120<143 315 143 315 491 874> 1341 139<632.5 784>
VStem: 315 176<131 666 131 666 131 666 786 938 938 966>
LayerCount: 2
Fore
SplineSet
1075 0 m 1
 155 0 l 1
 143 112 l 1
 315 129 l 1
 315 666 l 1
 143 666 l 1
 143 786 l 1
 315 786 l 1
 315 938 l 2
 315 1194 380 1480 733 1480 c 0
 877 1480 989 1426 1074 1354 c 1
 1006 1239 l 1
 920 1305 835 1341 733 1341 c 0
 532 1341 491 1190 491 966 c 2
 491 786 l 1
 874 786 l 1
 874 666 l 1
 491 666 l 1
 491 131 l 1
 1088 131 l 1
 1075 0 l 1
EndSplineSet
EndChar

StartChar: section
Encoding: 167 167 102
Width: 1000
Flags: HMW
HStem: -20 126<472 593.5 472 615> 1354 127<450.5 577 400.5 586.5>
VStem: 164 153<751.5 824 751.5 832.5 1152.5 1244.5> 732 147<230.5 330.5 666 731.5>
LayerCount: 2
Fore
SplineSet
317 1196 m 0
 317 1109 348 1083 484 1040 c 2
 589 1007 l 2
 826 933 879 852 879 689 c 0
 879 605 854 540 812 492 c 1
 863 440 879 376 879 288 c 0
 879 70 712 -20 518 -20 c 0
 408 -20 290 9 187 58 c 1
 187 197 l 1
 310 138 414 106 530 106 c 0
 657 106 732 170 732 291 c 0
 732 370 688 423 529 474 c 2
 413 511 l 2
 212 575 164 663 164 792 c 0
 164 873 193 944 248 994 c 1
 183 1047 164 1112 164 1193 c 0
 164 1361 287 1481 514 1481 c 0
 640 1481 746 1452 837 1407 c 1
 798 1284 l 1
 739 1314 642 1354 531 1354 c 0
 370 1354 317 1293 317 1196 c 0
382 923 m 1
 334 895 317 853 317 795 c 0
 317 708 348 682 484 639 c 2
 589 606 l 2
 628 594 662 581 692 568 c 1
 718 598 732 640 732 692 c 0
 732 771 688 824 529 875 c 2
 413 912 l 2
 402 915 392 919 382 923 c 1
EndSplineSet
EndChar

StartChar: paragraph
Encoding: 182 182 103
Width: 1204
Flags: HMW
HStem: 1341 119<645 821 645 645 945 1061 945 945>
VStem: 521 124<0 791 791 791> 821 124<0 1341 0 1341>
LayerCount: 2
Fore
SplineSet
521 0 m 1
 521 791 l 1
 240 791 139 958 139 1129 c 0
 139 1284 232 1460 552 1460 c 2
 1061 1460 l 1
 1061 1341 l 1
 945 1341 l 1
 945 0 l 1
 821 0 l 1
 821 1341 l 1
 645 1341 l 1
 645 0 l 1
 521 0 l 1
EndSplineSet
EndChar

StartChar: registered
Encoding: 174 174 104
Width: 1788
Flags: HMW
HStem: -20 84<727.5 1058.5 727.5 1081> 722 98<712 927 711 936> 1114 98<712 900 712 712> 1395 85<727.5 1058.5>
VStem: 142 104<513 946 513 976> 600 111<293 722 293 1212> 1121 108<916.5 1033> 1543 103<512.5 945>
LayerCount: 2
Fore
SplineSet
600 293 m 1
 600 1212 l 1
 916 1212 l 2
 1148 1212 1229 1137 1229 974 c 0
 1229 839 1168 751 1038 737 c 1
 1054 715 1262 293 1262 293 c 1
 1138 293 l 1
 1138 293 936 712 927 722 c 1
 711 722 l 1
 711 293 l 1
 600 293 l 1
712 820 m 1
 936 820 l 2
 1077 820 1121 863 1121 970 c 0
 1121 1096 1061 1114 900 1114 c 2
 712 1114 l 1
 712 820 l 1
893 64 m 0
 1224 64 1543 296 1543 729 c 0
 1543 1161 1224 1395 893 1395 c 0
 562 1395 246 1162 246 730 c 0
 246 296 562 64 893 64 c 0
893 -20 m 0
 518 -20 142 237 142 730 c 0
 142 1222 518 1480 893 1480 c 0
 1269 1480 1646 1222 1646 730 c 0
 1646 237 1269 -20 893 -20 c 0
EndSplineSet
EndChar

StartChar: copyright
Encoding: 169 169 105
Width: 1791
Flags: HMW
HStem: -21 84<727 1059.5 727 1082.5> 234 96<817 956 817 962> 1123 97<812.5 945> 1395 86<727 1059.5>
VStem: 139 104<512.5 947 512.5 977.5> 438 121<607.5 846.5 607.5 867.5> 1548 104<513 947>
LayerCount: 2
Fore
SplineSet
913 234 m 0
 655 234 438 438 438 727 c 0
 438 1008 650 1220 905 1220 c 0
 1005 1220 1103 1191 1191 1130 c 1
 1148 1043 l 1
 1075 1098 981 1123 909 1123 c 0
 716 1123 559 961 559 732 c 0
 559 483 717 330 917 330 c 0
 995 330 1075 349 1159 400 c 1
 1194 317 l 1
 1108 262 1011 234 913 234 c 0
893 63 m 0
 1226 63 1548 296 1548 730 c 0
 1548 1164 1226 1395 893 1395 c 0
 561 1395 243 1164 243 730 c 0
 243 295 561 63 893 63 c 0
893 -21 m 0
 517 -21 139 236 139 730 c 0
 139 1225 517 1481 893 1481 c 0
 1271 1481 1652 1225 1652 730 c 0
 1652 236 1272 -21 893 -21 c 0
EndSplineSet
EndChar

StartChar: acute
Encoding: 180 180 106
Width: 619
Flags: HMW
HStem: 1058 402<112 501 112 501>
VStem: 112 389
LayerCount: 2
Fore
SplineSet
112 1058 m 1
 295 1460 l 1
 501 1460 l 1
 209 1058 l 1
 112 1058 l 1
EndSplineSet
EndChar

StartChar: dieresis
Encoding: 168 168 107
Width: 740
Flags: HMW
HStem: 1196 187<166 219 528.5 581.5>
VStem: 100 186<1262.5 1317.5> 463 185<1262.5 1317.5>
LayerCount: 2
Fore
SplineSet
100 1290 m 0
 100 1345 139 1383 193 1383 c 0
 245 1383 286 1345 286 1290 c 0
 286 1235 245 1196 193 1196 c 0
 139 1196 100 1235 100 1290 c 0
555 1383 m 0
 608 1383 648 1345 648 1290 c 0
 648 1235 608 1196 555 1196 c 0
 502 1196 463 1235 463 1290 c 0
 463 1345 502 1383 555 1383 c 0
EndSplineSet
EndChar

StartChar: plusminus
Encoding: 177 177 108
Width: 1204
Flags: HMW
HStem: 0 115<137 1066 137 1066> 595 116<158 530 158 530 656 656 656 1021>
VStem: 530 126<207 595 207 595 207 1090>
LayerCount: 2
Fore
SplineSet
1066 0 m 1
 137 0 l 1
 137 115 l 1
 1066 115 l 1
 1066 0 l 1
530 207 m 1
 530 595 l 1
 158 595 l 1
 158 711 l 1
 530 711 l 1
 530 1090 l 1
 655 1090 l 1
 655 711 l 1
 1021 711 l 1
 1021 595 l 1
 656 595 l 1
 656 207 l 1
 530 207 l 1
EndSplineSet
EndChar

StartChar: yen
Encoding: 165 165 109
Width: 1234
Flags: HMW
HStem: 284 104<221 542 221 542 718 1030> 575 104<223 498 223 542 223 498 758 1029>
VStem: 542 176<0 284 0 284 388 575>
LayerCount: 2
Fore
SplineSet
1030 284 m 1
 718 284 l 1
 718 0 l 1
 542 0 l 1
 542 284 l 1
 221 284 l 1
 221 388 l 1
 542 388 l 1
 542 575 l 1
 223 575 l 1
 223 679 l 1
 498 679 l 1
 50 1460 l 1
 224 1460 l 1
 629 750 l 1
 1010 1460 l 1
 1184 1460 l 1
 758 679 l 1
 1029 679 l 1
 1029 575 l 1
 718 575 l 1
 718 388 l 1
 1030 388 l 1
 1030 284 l 1
EndSplineSet
EndChar

StartChar: mu
Encoding: 181 181 110
Width: 1206
Flags: HMW
HStem: -25 126<482 623.5> -1 1056<917 1059 917 917>
VStem: 184 164<408 1055> 895 164<465 1055 -1 1055>
LayerCount: 2
Fore
SplineSet
1059 1055 m 1x70
 1059 -1 l 1
 917 -1 l 1x70
 899 143 l 1
 826 41 709 -25 538 -25 c 0xb0
 294 -25 184 120 184 408 c 2
 184 1055 l 1
 348 1055 l 1x70
 348 390 l 2
 348 212 397 101 567 101 c 0xb0
 823 101 895 273 895 465 c 2
 895 1055 l 1
 1059 1055 l 1x70
EndSplineSet
EndChar

StartChar: ordfeminine
Encoding: 170 170 111
Width: 1050
Flags: HMW
HStem: 583 98<392.5 479.5> 991 91<443 562 395 568.5> 1377 103<471 588>
VStem: 149 139<781 880 781 906.5> 719 144<823 980 980 980 1071 1169 599 1189 599 1251>
LayerCount: 2
Fore
SplineSet
719 1071 m 1
 719 1189 l 2
 719 1313 659 1377 517 1377 c 0
 425 1377 324 1358 236 1318 c 1
 197 1417 l 1
 296 1460 407 1480 514 1480 c 0
 725 1480 863 1399 863 1169 c 2
 863 599 l 1
 752 599 l 1
 737 719 l 1
 644 613 533 583 426 583 c 0
 259 583 149 672 149 831 c 0
 149 982 255 1082 535 1082 c 0
 589 1082 651 1079 719 1071 c 1
719 823 m 1
 719 980 l 1
 652 988 593 991 544 991 c 0
 342 991 288 929 288 831 c 0
 288 731 352 681 433 681 c 0
 559 681 650 727 719 823 c 1
EndSplineSet
EndChar

StartChar: ordmasculine
Encoding: 186 186 112
Width: 844
Flags: HMW
HStem: 735 104<354.5 491 354.5 524> 1376 104<355 489>
VStem: 85 137<1021.5 1189.5 1021.5 1213> 627 130<1019.5 1187>
LayerCount: 2
Fore
SplineSet
222 1105 m 0
 222 938 288 839 421 839 c 0
 561 839 627 937 627 1102 c 0
 627 1272 557 1376 421 1376 c 0
 289 1376 222 1274 222 1105 c 0
757 1105 m 0
 757 896 627 735 421 735 c 0
 203 735 85 893 85 1105 c 0
 85 1321 203 1480 421 1480 c 0
 645 1480 757 1324 757 1105 c 0
EndSplineSet
EndChar

StartChar: exclamdown
Encoding: 161 161 113
Width: 476
Flags: HMW
HStem: 969 229<211 291>
VStem: 136 230<1055 1111 1055 1112> 167 176<-275 -156 -275 -156>
LayerCount: 2
Fore
SplineSet
285 767 m 1xa0
 343 -156 l 1
 343 -275 l 1
 167 -275 l 1
 167 -156 l 1
 219 767 l 1
 285 767 l 1xa0
251 1198 m 0
 331 1198 366 1139 366 1083 c 0
 366 1027 331 969 251 969 c 0
 171 969 136 1027 136 1083 c 0xc0
 136 1141 171 1198 251 1198 c 0
EndSplineSet
EndChar

StartChar: logicalnot
Encoding: 172 172 114
Width: 1182
Flags: HMW
HStem: 666 125<101 936 101 1057>
VStem: 936 121<253 666 666 666>
LayerCount: 2
Fore
SplineSet
936 253 m 1
 936 666 l 1
 101 666 l 1
 101 791 l 1
 1057 791 l 1
 1057 253 l 1
 936 253 l 1
EndSplineSet
EndChar

StartChar: guillemotleft
Encoding: 171 171 115
Width: 985
Flags: HMW
HStem: 148 785<385 550 389 542 389 738 741 895>
VStem: 101 801<539 933>
LayerCount: 2
Fore
SplineSet
385 148 m 1
 101 539 l 1
 389 933 l 1
 550 933 l 1
 266 542 l 1
 542 148 l 1
 385 148 l 1
738 148 m 1
 454 539 l 1
 741 933 l 1
 902 933 l 1
 618 542 l 1
 895 148 l 1
 738 148 l 1
EndSplineSet
EndChar

StartChar: guillemotright
Encoding: 187 187 116
Width: 989
Flags: HMW
HStem: 148 785<108 262 101 265 108 108 461 614 101 618 461 461>
VStem: 101 801<539 933>
LayerCount: 2
Fore
SplineSet
265 148 m 1
 108 148 l 1
 385 542 l 1
 101 933 l 1
 262 933 l 1
 549 539 l 1
 265 148 l 1
618 148 m 1
 461 148 l 1
 737 542 l 1
 453 933 l 1
 614 933 l 1
 902 539 l 1
 618 148 l 1
EndSplineSet
EndChar

StartChar: currency
Encoding: 164 164 117
Width: 1280
Flags: HMW
HStem: 305 89<596 695.5> 1021 90<597 695 597 740>
VStem: 244 97<662 751.5> 952 96<661 750.5 661 791.5>
LayerCount: 2
Fore
SplineSet
646 394 m 0
 835 394 952 538 952 707 c 0
 952 876 834 1021 646 1021 c 0
 459 1021 341 876 341 707 c 0
 341 537 459 394 646 394 c 0
1086 225 m 1
 905 395 l 1
 834 337 745 305 646 305 c 0
 546 305 459 336 387 396 c 1
 207 226 l 1
 144 291 l 1
 325 463 l 1
 271 534 244 617 244 707 c 0
 244 796 271 880 325 951 c 1
 143 1125 l 1
 207 1188 l 1
 386 1019 l 1
 458 1079 548 1111 646 1111 c 0
 744 1111 834 1077 905 1018 c 1
 1086 1188 l 1
 1147 1123 l 1
 967 951 l 1
 1021 877 1048 794 1048 707 c 0
 1048 615 1021 532 968 463 c 1
 1146 290 l 1
 1086 225 l 1
EndSplineSet
EndChar

StartChar: periodcentered
Encoding: 183 183 118
Width: 478
Flags: HMW
HStem: 514 213<207 270.5>
VStem: 128 222<589.5 652.5>
LayerCount: 2
Fore
SplineSet
128 621 m 0
 128 684 175 727 239 727 c 0
 302 727 350 684 350 621 c 0
 350 558 302 514 239 514 c 0
 175 514 128 558 128 621 c 0
EndSplineSet
EndChar

StartChar: macron
Encoding: 175 175 119
Width: 1056
Flags: HMW
HStem: 1231 119<211 796 211 796>
VStem: 211 585<1231 1350 1231 1350>
LayerCount: 2
Fore
SplineSet
211 1231 m 1
 211 1350 l 1
 796 1350 l 1
 796 1231 l 1
 211 1231 l 1
EndSplineSet
EndChar

StartChar: cedilla
Encoding: 184 184 120
Width: 575
Flags: HMW
HStem: -456 466<258 326>
VStem: 94 232
LayerCount: 2
Fore
SplineSet
94 -431 m 1
 260 10 l 1
 326 10 l 1
 258 -456 l 1
 94 -431 l 1
EndSplineSet
EndChar

StartChar: uni00AD
Encoding: 173 173 121
Width: 957
Flags: HMW
HStem: 205 133<114 856 114 856>
VStem: 114 742<205 338 205 338>
LayerCount: 2
Fore
SplineSet
114 205 m 1
 114 338 l 1
 856 338 l 1
 856 205 l 1
 114 205 l 1
EndSplineSet
EndChar

StartChar: uni00B2
Encoding: 178 178 123
Width: 730
Flags: HMW
HStem: 649 97<250 622 250 622> 1406 98<335 414.5>
VStem: 107 515<649 739 739 739> 521 112<1193 1307>
LayerCount: 2
Fore
SplineSet
622 746 m 1xe0
 622 649 l 1
 107 649 l 1
 107 739 l 1xe0
 347 980 521 1132 521 1254 c 0
 521 1360 453 1406 376 1406 c 0
 294 1406 214 1370 150 1284 c 1
 79 1343 l 1
 130 1439 251 1504 364 1504 c 0
 519 1504 633 1422 633 1263 c 0xd0
 633 1074 462 940 250 746 c 1
 622 746 l 1xe0
EndSplineSet
EndChar

StartChar: uni00B9
Encoding: 185 185 124
Width: 802
Flags: HMW
HStem: 598 109<229 383 229 383 521 660>
VStem: 383 138<707 1320 1320 1320>
LayerCount: 2
Fore
SplineSet
229 598 m 1
 229 707 l 1
 383 707 l 1
 383 1320 l 1
 346 1297 253 1260 219 1248 c 1
 219 1359 l 1
 255 1372 369 1421 411 1460 c 1
 521 1460 l 1
 521 707 l 1
 660 707 l 1
 660 598 l 1
 229 598 l 1
EndSplineSet
EndChar

StartChar: uni00B3
Encoding: 179 179 125
Width: 800
Flags: HMW
HStem: 615 113<350 418.5 348 463.5> 1009 113<254 325 325 328 254 325> 1362 113<347.5 416>
VStem: 502 131<1215 1284> 521 131<822.5 915.5 788.5 917>
LayerCount: 2
Fore
SplineSet
391 615 m 0xe8
 309 615 190 640 130 702 c 1
 179 798 l 1
 228 754 317 728 379 728 c 0
 458 728 521 774 521 871 c 0xe8
 521 963 438 1009 328 1009 c 2
 254 1009 l 1
 254 1122 l 1
 325 1122 l 2
 425 1122 502 1163 502 1244 c 0
 502 1324 451 1362 381 1362 c 0
 314 1362 222 1333 182 1293 c 1
 128 1380 l 1
 184 1440 299 1475 386 1475 c 0
 511 1475 633 1399 633 1246 c 0xf0
 633 1184 595 1099 489 1073 c 1
 594 1042 652 964 652 867 c 0
 652 710 536 615 391 615 c 0xe8
EndSplineSet
EndChar

